<?xml version="1.0" standalone="no"?><!DOCTYPE svg PUBLIC "-//W3C//DTD SVG 1.1//EN" "http://www.w3.org/Graphics/SVG/1.1/DTD/svg11.dtd"><svg t="1744250670933" class="icon" viewBox="0 0 1536 1024" version="1.1" xmlns="http://www.w3.org/2000/svg" p-id="2838" xmlns:xlink="http://www.w3.org/1999/xlink" width="96" height="64"><path d="M0 320h1536v384H0z" fill="#E94B35" p-id="2839"></path><path d="M0 0h1536v320H0z" fill="#2C97DE" p-id="2840"></path><path d="M0 704h1536V1024H0z" fill="#1AAF5D" p-id="2841"></path><path d="M966.272 574.17728l-45.40928-21.53984-16.79872 47.36-16.86528-47.36-45.37344 21.632 21.53472-45.40416-47.36-16.79872 47.36-16.86528-21.632-45.37856 45.40928 21.53984 16.79872-47.36 16.86528 47.36 45.37344-21.632-21.53472 45.40416 47.36 16.79872-47.36 16.86528z" fill="#FFFFFF" p-id="2842"></path><path d="M863.93856 376.16128a144 144 0 1 0 0 271.67744c-71.63904 59.01824-176.79872 52.25984-240.29184-15.44704-63.488-67.70176-63.488-173.0816 0-240.78336 63.488-67.70688 168.6528-74.46528 240.29184-15.44704z" fill="#FFFFFF" p-id="2843"></path></svg>