<?xml version="1.0" standalone="no"?><!DOCTYPE svg PUBLIC "-//W3C//DTD SVG 1.1//EN" "http://www.w3.org/Graphics/SVG/1.1/DTD/svg11.dtd"><svg t="1725863548536" class="icon" viewBox="0 0 1532 1024" version="1.1" xmlns="http://www.w3.org/2000/svg" p-id="4546" xmlns:xlink="http://www.w3.org/1999/xlink" width="191.5" height="128"><path d="M0 1024V0h1532.896045v1024z m1529.741205-3.137878zM6.360565 1017.656397h1520.174915V6.258795H6.360565z" fill="#231F20" p-id="4547"></path><path d="M868.242497 613.735109h661.447823v407.09309H868.242497zM3.15484 3.120917h661.51567v407.093089H3.15484zM3.15484 613.735109h661.51567v407.09309H3.15484zM868.242497 3.120917h661.447823v407.093089H868.242497z" fill="#FFFFFF" p-id="4548"></path><path d="M868.259458 3.120917H664.687471v407.093089H3.15484v203.538064h661.532631v407.076129h203.571987v-407.076129h661.447824v-203.538064H868.259458V3.120917z" fill="#ED1C24" p-id="4549"></path><path d="M1164.984032 109.774863a272.300007 272.300007 0 0 0 67.846022 0 536.543298 536.543298 0 0 0-8.345061 71.238322 523.60167 523.60167 0 0 0 71.407937-8.378984 273.266812 273.266812 0 0 0 0 68.015637 510.541311 510.541311 0 0 0-71.407937-8.395945 571.60273 571.60273 0 0 0 8.345061 71.238322 272.316968 272.316968 0 0 0-67.846022 0 499.753793 499.753793 0 0 0 8.480753-71.475784 546.058703 546.058703 0 0 0-71.390976 8.616445 281.560989 281.560989 0 0 0 0-68.015636 554.810839 554.810839 0 0 0 71.390976 8.56556 499.414563 499.414563 0 0 0-8.480753-71.407937zM299.964222 109.774863a272.45266 272.45266 0 0 0 67.846021 0 525.552243 525.552243 0 0 0-8.362022 71.238322 525.094282 525.094282 0 0 0 71.424899-8.378984 273.266812 273.266812 0 0 0 0 68.015637 512.050885 512.050885 0 0 0-71.289207-8.328099 559.119062 559.119062 0 0 0 8.362022 71.238322 272.45266 272.45266 0 0 0-67.846021 0 512.237461 512.237461 0 0 0 8.480753-71.475784 548.382429 548.382429 0 0 0-71.475784 8.616445 274.895117 274.895117 0 0 0 0-68.015636 557.18545 557.18545 0 0 0 71.475784 8.56556 511.864308 511.864308 0 0 0-8.616445-71.475783zM299.964222 720.389055a272.45266 272.45266 0 0 0 67.846021 0 525.552243 525.552243 0 0 0-8.362022 71.238322 525.094282 525.094282 0 0 0 71.424899-8.378984 273.266812 273.266812 0 0 0 0 68.015637 512.050885 512.050885 0 0 0-71.424899-8.480753 559.119062 559.119062 0 0 0 8.362022 71.238322 272.45266 272.45266 0 0 0-67.846021 0 512.237461 512.237461 0 0 0 8.480752-71.475783 548.382429 548.382429 0 0 0-71.475783 8.616445 274.895117 274.895117 0 0 0 0-68.015637 557.18545 557.18545 0 0 0 71.475783 8.480753 511.864308 511.864308 0 0 0-8.480752-71.238322zM1164.984032 720.389055a272.300007 272.300007 0 0 0 67.846022 0 536.543298 536.543298 0 0 0-8.345061 71.238322 523.60167 523.60167 0 0 0 71.407937-8.378984 273.266812 273.266812 0 0 0 0 68.015637 510.541311 510.541311 0 0 0-71.407937-8.480753 571.60273 571.60273 0 0 0 8.345061 71.238322 272.316968 272.316968 0 0 0-67.846022 0 499.753793 499.753793 0 0 0 8.480753-71.475783 546.058703 546.058703 0 0 0-71.390976 8.616445 281.560989 281.560989 0 0 0 0-68.015637 554.810839 554.810839 0 0 0 71.390976 8.480753 499.414563 499.414563 0 0 0-8.480753-71.238322z" fill="#E8112D" p-id="4550"></path></svg>