<?xml version="1.0" standalone="no"?><!DOCTYPE svg PUBLIC "-//W3C//DTD SVG 1.1//EN" "http://www.w3.org/Graphics/SVG/1.1/DTD/svg11.dtd"><svg t="1719909507282" class="icon" viewBox="0 0 1433 1024" version="1.1" xmlns="http://www.w3.org/2000/svg" p-id="7918" xmlns:xlink="http://www.w3.org/1999/xlink" width="179.125" height="128"><path d="M0 0m90.066794 0l1080.801524 0q90.066794 0 90.066793 90.066794l0 720.534349q0 90.066794-90.066793 90.066794l-1080.801524 0q-90.066794 0-90.066794-90.066794l0-720.534349q0-90.066794 90.066794-90.066794Z" fill="#FFFFFF" p-id="7919"></path><path d="M0 0h1260.935111v900.667937H0z" fill="#E92434" p-id="7920"></path><path d="M855.63454 485.009684l-54.040076 66.649427 3.602671-86.464122-80.60978-31.973711 83.311784-22.967033 5.404008-86.464122 47.735401 72.053435L945.701334 374.227528l-54.040077 68.000429 45.033397 72.954103z" fill="#FFFFFF" p-id="7921"></path><path d="M783.581105 616.056869a270.200381 270.200381 0 1 1 0-331.445801 232.372328 232.372328 0 0 0-138.252528-45.033397 217.961641 217.961641 0 0 0-225.166985 210.305963 217.961641 217.961641 0 0 0 225.166985 210.305964 232.372328 232.372328 0 0 0 138.252528-44.132729z" fill="#FFFFFF" p-id="7922"></path></svg>